<svg xmlns="http://www.w3.org/2000/svg" viewBox="0 0 48 48"><defs><style>.cls-1{fill:#db5669}.cls-2{fill:#f26674}.cls-3{fill:#dad7e5}.cls-5{fill:#c6c3d8}</style></defs><g id="calendar_desk" data-name="calendar desk"><path class="cls-1" d="M1 6h40v8H1z"/><path class="cls-2" d="M41 6v6H9a6 6 0 0 1-6-6z"/><path class="cls-3" d="M1 14h40v30H1z"/><path d="M41 14v28H7a4 4 0 0 1-4-4V14z" style="fill:#edebf2"/><path class="cls-3" d="M8 8V4a1 1 0 0 1 2 0v4a1 1 0 0 1-2 0zM12 8V4a1 1 0 0 1 2 0v4a1 1 0 0 1-2 0zM32 8V4a1 1 0 0 1 2 0v4a1 1 0 0 1-2 0zM28 8V4a1 1 0 0 1 2 0v4a1 1 0 0 1-2 0z"/><path class="cls-5" d="M7 19h6v4H7zM18 19h6v4h-6zM29 19h6v4h-6zM7 27h6v4H7zM18 27h6v4h-6zM29 27h6v4h-6zM7 35h6v4H7z"/><path class="cls-3" d="M13 35v2h-2a2 2 0 0 1-2-2z"/><path class="cls-5" d="M18 35h6v4h-6zM29 35h6v4h-6z"/><path class="cls-1" d="M47 40h-3l-3 4V6c6.72 38.05 5.32 30.1 6 34z"/><path class="cls-2" d="M46.65 38H44l-1 1.33v-22L46.65 38z"/><path class="cls-3" d="M13 27v2h-2a2 2 0 0 1-2-2zM13 19v2h-2a2 2 0 0 1-2-2zM24 35v2h-2a2 2 0 0 1-2-2zM24 27v2h-2a2 2 0 0 1-2-2zM24 19v2h-2a2 2 0 0 1-2-2zM35 35v2h-2a2 2 0 0 1-2-2zM35 27v2h-2a2 2 0 0 1-2-2zM35 19v2h-2a2 2 0 0 1-2-2z"/></g></svg>