<svg xmlns="http://www.w3.org/2000/svg" viewBox="0 0 256 256" style="enable-background:new 0 0 256 256" xml:space="preserve"><style>.st2{fill:none;stroke:#6b1d1d;stroke-width:.5;stroke-miterlimit:10}.st3{fill:#3a312a}.st4{fill:#87796f}.st11{fill:#d6df58}.st21{fill:#8ac5dc}.st22{fill:#ef6d7a}</style><g id="Layer_1"><path d="M81.237 192.148v29.65c0 9.833 7.971 17.805 17.804 17.805h121.895c9.833 0 17.805-7.972 17.805-17.805V49.658c0-9.833-7.971-17.805-17.805-17.805H99.041c-9.833 0-17.804 7.971-17.804 17.805v142.49z" style="fill:#fae6ca"/><path class="st3" d="M220.936 241.104H99.041c-10.645 0-19.304-8.66-19.304-19.305v-29.65a1.5 1.5 0 0 1 3 0v29.65c0 8.99 7.313 16.305 16.304 16.305h121.895c8.99 0 16.305-7.314 16.305-16.305V49.658c0-8.99-7.314-16.305-16.305-16.305H99.041c-8.99 0-16.304 7.314-16.304 16.305v129.233a1.5 1.5 0 0 1-3 0V49.658c0-10.645 8.659-19.305 19.304-19.305h121.895c10.645 0 19.305 8.66 19.305 19.305v172.141c0 10.644-8.66 19.305-19.305 19.305z"/><path class="st3" d="M219.225 97.354H101.079a1.5 1.5 0 0 1 0-3h118.145a1.5 1.5 0 0 1 .001 3zM219.225 120.804H101.079a1.5 1.5 0 0 1 0-3h118.145a1.5 1.5 0 0 1 .001 3zM219.225 144.254H101.079a1.5 1.5 0 0 1 0-3h118.145a1.5 1.5 0 0 1 .001 3zM219.225 167.703H101.079a1.5 1.5 0 0 1 0-3h118.145a1.5 1.5 0 0 1 .001 3z"/><path class="st3" d="M219.225 167.703H101.079a1.5 1.5 0 0 1 0-3h118.145a1.5 1.5 0 0 1 .001 3zM219.225 214.604H101.079a1.5 1.5 0 0 1 0-3h118.145a1.5 1.5 0 0 1 .001 3zM219.225 191.153H101.079a1.5 1.5 0 0 1 0-3h118.145a1.5 1.5 0 0 1 .001 3z"/><path class="st11" d="M48.063 26.073s3.408 12.659 13.222 13.246c0 0-13.1 4.525-13.321 14.202 0 0-2.579-13.572-12.925-14.059 0 .001 12.05-1.825 13.024-13.389z"/><path class="st3" d="M47.963 55.021a1.502 1.502 0 0 1-1.473-1.218c-.023-.124-2.494-12.417-11.521-12.843a1.5 1.5 0 0 1-.155-2.982c.441-.068 10.894-1.816 11.754-12.032a1.5 1.5 0 0 1 1.359-1.367c.731-.057 1.394.4 1.584 1.102.031.116 3.259 11.626 11.863 12.142a1.5 1.5 0 0 1 .402 2.914c-.121.042-12.119 4.311-12.312 12.819a1.5 1.5 0 0 1-1.501 1.465zm-7.741-15.729c3.878 1.969 6.23 5.746 7.587 8.876 2.026-4.021 5.941-6.787 8.949-8.427-4.135-1.843-6.783-5.651-8.334-8.723-1.793 4.361-5.272 6.869-8.202 8.274z"/><path class="st11" d="M26.365 43.054s2.411 8.954 9.352 9.369c0 0-9.266 3.201-9.422 10.045 0 0-1.824-9.6-9.142-9.944-.001.001 8.523-1.291 9.212-9.47z"/><path class="st3" d="M26.293 63.969a1.5 1.5 0 0 1-1.473-1.22c-.016-.082-1.704-8.442-7.738-8.727a1.5 1.5 0 0 1-.155-2.982c.296-.047 7.363-1.242 7.941-8.113a1.501 1.501 0 0 1 1.361-1.368 1.506 1.506 0 0 1 1.581 1.101c.022.079 2.229 7.92 7.994 8.266a1.5 1.5 0 0 1 .399 2.915c-.08.028-8.281 2.952-8.411 8.661a1.5 1.5 0 0 1-1.499 1.467zm-4.519-11.528c2.106 1.333 3.522 3.395 4.446 5.279 1.376-2.232 3.516-3.871 5.365-4.972-2.287-1.27-3.884-3.351-4.941-5.225-1.172 2.289-3.014 3.877-4.87 4.918z"/><path class="st11" d="M26.365 16.396s2.411 8.954 9.352 9.37c0 0-9.266 3.201-9.422 10.045 0 0-1.824-9.6-9.142-9.944-.001 0 8.523-1.291 9.212-9.471z"/><path class="st3" d="M26.293 37.312a1.5 1.5 0 0 1-1.473-1.22c-.016-.082-1.704-8.442-7.738-8.727a1.5 1.5 0 0 1-.155-2.981c.296-.047 7.363-1.242 7.941-8.113a1.501 1.501 0 0 1 1.361-1.368 1.506 1.506 0 0 1 1.581 1.102c.022.079 2.229 7.92 7.994 8.265a1.499 1.499 0 0 1 .4 2.915c-.081.028-8.282 2.953-8.412 8.662a1.5 1.5 0 0 1-1.499 1.465zm-4.519-11.528c2.106 1.333 3.522 3.393 4.446 5.279 1.376-2.232 3.516-3.872 5.365-4.973-2.287-1.269-3.884-3.35-4.941-5.224-1.172 2.288-3.014 3.877-4.87 4.918z"/><path class="st21" d="M178.552 72.354h60.352V49.658c0-9.833-7.971-17.805-17.805-17.805H99.204c-9.833 0-17.805 7.971-17.805 17.805v22.695h97.153z"/><path class="st3" d="M238.904 73.854h-60.352a1.5 1.5 0 0 1 0-3h58.852V49.658c0-8.99-7.314-16.305-16.305-16.305H99.204c-8.99 0-16.305 7.314-16.305 16.305v21.195h82.853a1.5 1.5 0 0 1 0 3H81.399a1.5 1.5 0 0 1-1.5-1.5V49.658c0-10.645 8.66-19.305 19.305-19.305H221.1c10.645 0 19.305 8.66 19.305 19.305v22.695a1.502 1.502 0 0 1-1.501 1.501z"/><path class="st4" d="M91.943 43.37V22.088a5.5 5.5 0 0 1 5.5-5.5h.455a5.5 5.5 0 0 1 5.5 5.5V43.37a5.5 5.5 0 0 1-5.5 5.5h-.455a5.5 5.5 0 0 1-5.5-5.5z"/><path class="st3" d="M97.898 50.369h-.455c-3.859 0-7-3.141-7-7V22.088c0-3.859 3.141-7 7-7h.455c3.859 0 7 3.141 7 7v21.281c0 3.86-3.14 7-7 7zm-.455-32.281c-2.206 0-4 1.794-4 4v21.281c0 2.206 1.794 4 4 4h.455c2.206 0 4-1.794 4-4V22.088c0-2.206-1.794-4-4-4h-.455z"/><path class="st4" d="M116.936 43.37V22.088a5.5 5.5 0 0 1 5.5-5.5h.455a5.5 5.5 0 0 1 5.5 5.5V43.37a5.5 5.5 0 0 1-5.5 5.5h-.455a5.5 5.5 0 0 1-5.5-5.5z"/><path class="st3" d="M122.891 50.369h-.455c-3.859 0-7-3.141-7-7V22.088c0-3.859 3.141-7 7-7h.455c3.859 0 7 3.141 7 7v21.281c0 3.86-3.141 7-7 7zm-.455-32.281c-2.206 0-4 1.794-4 4v21.281c0 2.206 1.794 4 4 4h.455c2.206 0 4-1.794 4-4V22.088c0-2.206-1.794-4-4-4h-.455z"/><path class="st4" d="M141.928 43.37V22.088a5.5 5.5 0 0 1 5.5-5.5h.455a5.5 5.5 0 0 1 5.5 5.5V43.37a5.5 5.5 0 0 1-5.5 5.5h-.455a5.5 5.5 0 0 1-5.5-5.5z"/><path class="st3" d="M147.883 50.369h-.454c-3.859 0-7-3.141-7-7V22.088c0-3.859 3.141-7 7-7h.454c3.859 0 7 3.141 7 7v21.281c0 3.86-3.141 7-7 7zm-.454-32.281c-2.206 0-4 1.794-4 4v21.281c0 2.206 1.794 4 4 4h.454c2.206 0 4-1.794 4-4V22.088c0-2.206-1.794-4-4-4h-.454z"/><path class="st4" d="M166.921 43.37V22.088a5.5 5.5 0 0 1 5.5-5.5h.455a5.5 5.5 0 0 1 5.5 5.5V43.37a5.5 5.5 0 0 1-5.5 5.5h-.455a5.5 5.5 0 0 1-5.5-5.5z"/><path class="st3" d="M172.876 50.369h-.455c-3.859 0-7-3.141-7-7V22.088c0-3.859 3.141-7 7-7h.455c3.859 0 7 3.141 7 7v21.281c0 3.86-3.141 7-7 7zm-.455-32.281c-2.206 0-4 1.794-4 4v21.281c0 2.206 1.794 4 4 4h.455c2.206 0 4-1.794 4-4V22.088c0-2.206-1.794-4-4-4h-.455z"/><path class="st4" d="M191.913 43.37V22.088a5.5 5.5 0 0 1 5.5-5.5h.455a5.5 5.5 0 0 1 5.5 5.5V43.37a5.5 5.5 0 0 1-5.5 5.5h-.455a5.5 5.5 0 0 1-5.5-5.5z"/><path class="st3" d="M197.868 50.369h-.455c-3.859 0-7-3.141-7-7V22.088c0-3.859 3.141-7 7-7h.455c3.859 0 7 3.141 7 7v21.281c0 3.86-3.141 7-7 7zm-.455-32.281c-2.206 0-4 1.794-4 4v21.281c0 2.206 1.794 4 4 4h.455c2.206 0 4-1.794 4-4V22.088c0-2.206-1.794-4-4-4h-.455z"/><path class="st4" d="M216.906 43.37V22.088a5.5 5.5 0 0 1 5.5-5.5h.455a5.5 5.5 0 0 1 5.5 5.5V43.37a5.5 5.5 0 0 1-5.5 5.5h-.455a5.5 5.5 0 0 1-5.5-5.5z"/><path class="st3" d="M222.86 50.369h-.454c-3.859 0-7-3.141-7-7V22.088c0-3.859 3.141-7 7-7h.454c3.859 0 7 3.141 7 7v21.281c0 3.86-3.14 7-7 7zm-.454-32.281c-2.206 0-4 1.794-4 4v21.281c0 2.206 1.794 4 4 4h.454c2.206 0 4-1.794 4-4V22.088c0-2.206-1.794-4-4-4h-.454z"/><path class="st22" d="m112.795 71.523 3.235-6.4a9.377 9.377 0 0 0-16.738-8.46l-3.235 6.4 16.738 8.46z"/><path class="st3" d="M112.794 73.022c-.228 0-.459-.052-.676-.161l-16.737-8.459a1.502 1.502 0 0 1-.662-2.016l3.234-6.4a10.806 10.806 0 0 1 6.312-5.427 10.81 10.81 0 0 1 8.302.626 10.811 10.811 0 0 1 5.428 6.312 10.809 10.809 0 0 1-.626 8.302l-3.235 6.399a1.498 1.498 0 0 1-1.34.824zM98.073 62.401l14.06 7.105 2.559-5.061a7.825 7.825 0 0 0 .453-6.012 7.822 7.822 0 0 0-3.931-4.571 7.824 7.824 0 0 0-6.012-.454 7.825 7.825 0 0 0-4.571 3.931l-2.558 5.062z"/><path class="st21" d="m112.795 71.523-76.382 149.9-16.738-8.46 76.382-149.9z"/><path class="st3" d="M36.412 222.923c-.228 0-.459-.052-.676-.161l-16.738-8.46a1.504 1.504 0 0 1-.66-2.019l76.383-149.9a1.5 1.5 0 0 1 2.014-.658l16.737 8.459a1.504 1.504 0 0 1 .66 2.019l-76.382 149.9a1.5 1.5 0 0 1-1.338.82zm-14.718-10.62 14.061 7.107 75.02-147.228-14.06-7.106-75.021 147.227z"/><path class="st22" d="m57.741 138.259-38.066 74.704 16.738 8.46 38.066-74.704z"/><path class="st3" d="M36.412 222.923c-.228 0-.459-.052-.676-.161l-16.738-8.46a1.504 1.504 0 0 1-.66-2.019l38.066-74.704a1.5 1.5 0 0 1 2.014-.658l16.737 8.46a1.504 1.504 0 0 1 .66 2.019L37.75 222.104c-.266.52-.792.819-1.338.819zm-14.718-10.62 14.061 7.107 36.704-72.031-14.061-7.107-36.704 72.031z"/><path class="st11" d="m36.413 221.423-16.738-8.46-2.579 25.891z"/><path class="st3" d="M17.096 240.354a1.498 1.498 0 0 1-1.492-1.648l2.579-25.891a1.5 1.5 0 0 1 2.17-1.191l16.738 8.46a1.502 1.502 0 0 1 .329 2.452l-19.317 17.431a1.508 1.508 0 0 1-1.007.387zm3.854-25.066-1.977 19.851 14.811-13.364-12.834-6.487z"/><circle transform="rotate(-22.5 190.928 190.227)" cx="190.937" cy="190.235" style="fill:#d5dc57" r="37.837"/><path class="st3" d="M190.938 229.572c-21.691 0-39.338-17.646-39.338-39.337 0-21.691 17.646-39.338 39.338-39.338 21.69 0 39.337 17.646 39.337 39.338-.001 21.691-17.647 39.337-39.337 39.337zm0-75.674c-20.037 0-36.338 16.301-36.338 36.338 0 20.036 16.301 36.337 36.338 36.337 20.036 0 36.337-16.301 36.337-36.337-.001-20.038-16.301-36.338-36.337-36.338z"/><path class="st4" d="M191.13 202.951h-12.231l-1.699 5.755h-11l13.105-34.865h11.751l13.101 34.865h-11.281l-1.746-5.755zm-2.234-7.54-3.849-12.533-3.808 12.533h7.657z"/><path class="st3" d="M204.156 210.206h-11.281a1.502 1.502 0 0 1-1.436-1.064l-1.421-4.69h-9.998l-1.382 4.68a1.5 1.5 0 0 1-1.439 1.075h-11.001a1.499 1.499 0 0 1-1.404-2.027l13.105-34.865a1.5 1.5 0 0 1 1.404-.973h11.751a1.5 1.5 0 0 1 1.404.973l13.1 34.865a1.5 1.5 0 0 1-1.402 2.026zm-10.169-3h8.003l-11.974-31.865h-9.673l-11.979 31.865h7.714l1.382-4.68a1.498 1.498 0 0 1 1.438-1.075h12.232c.661 0 1.244.433 1.436 1.064l1.421 4.691zm-5.091-10.295h-7.657a1.501 1.501 0 0 1-1.435-1.936l3.809-12.533a1.502 1.502 0 0 1 1.434-1.064h.002a1.5 1.5 0 0 1 1.434 1.06l3.849 12.533c.14.455.056.949-.228 1.332a1.503 1.503 0 0 1-1.208.608zm-5.633-3h3.605l-1.812-5.898-1.793 5.898z"/><path class="st4" d="M198.582 173.861h6.327v-6.36h5.336v6.36h6.36v5.335h-6.36v6.327h-5.336v-6.327h-6.327v-5.335z"/><path class="st3" d="M210.244 187.024h-5.336a1.5 1.5 0 0 1-1.5-1.5v-4.828h-4.826a1.5 1.5 0 0 1-1.5-1.5v-5.335a1.5 1.5 0 0 1 1.5-1.5h4.826v-4.86a1.5 1.5 0 0 1 1.5-1.5h5.336a1.5 1.5 0 0 1 1.5 1.5v4.86h4.86a1.5 1.5 0 0 1 1.5 1.5v5.335a1.5 1.5 0 0 1-1.5 1.5h-4.86v4.828a1.5 1.5 0 0 1-1.5 1.5zm-3.836-3h2.336v-4.828a1.5 1.5 0 0 1 1.5-1.5h4.86v-2.335h-4.86a1.5 1.5 0 0 1-1.5-1.5v-4.86h-2.336v4.86a1.5 1.5 0 0 1-1.5 1.5h-4.826v2.335h4.826a1.5 1.5 0 0 1 1.5 1.5v4.828z"/><path d="M222.242 73.854v92.59a39.113 39.113 0 0 1 8.03 23.79c0 8.93-2.99 17.18-8.03 23.79v7.78c0 8.99-7.31 16.3-16.3 16.3h15c8.99 0 16.3-7.31 16.3-16.3V73.854h-15z" style="fill:#decaad"/><path d="M237.402 49.653v21.2h-15v-20.48h.46c3.86 0 7-3.14 7-7v-7.44c4.53 2.901 7.54 7.961 7.54 13.72z" style="fill:#6ca8bf"/></g></svg>