<svg xmlns="http://www.w3.org/2000/svg" viewBox="0 0 32 32" style="background-color: black;">
  <g data-name="39-Alarm">
    <path d="m31.89 27.55-2-4A1 1 0 0 0 29 23h-1v-8a12.31 12.31 0 0 0-9-11.8V2a2 2 0 0 0-2-2h-2a2 2 0 0 0-2 2v1.2A12.31 12.31 0 0 0 4 15v8H3a1 1 0 0 0-.89.55l-2 4A1 1 0 0 0 1 29h11.14a4 4 0 0 0 7.72 0H31a1 1 0 0 0 .89-1.45zM2.62 27l1-2H23v-2H6v-8a10.25 10.25 0 0 1 8.18-10A1 1 0 0 0 15 4V2h2v2a1 1 0 0 0 .82 1A10.25 10.25 0 0 1 26 15v9a1 1 0 0 0 1 1h1.38l1 2z" fill="white"/>
    <path d="M9 14h2c0-3.83 2.7-4 3-4V8c-1.73 0-5 1.25-5 6z" fill="white"/>
  </g>
</svg>
